<svg width="256" height="256" viewBox="0 0 256 256" fill="none" xmlns="http://www.w3.org/2000/svg">
<rect width="256" height="256" rx="59" fill="#1E1E1E"/>
<path d="M171.483 50.6861L48.416 50.6861C45.8408 50.6861 43.7532 48.5985 43.7532 46.0233C43.7532 43.4481 45.8408 41.3605 48.416 41.3605L171.483 41.3605C174.058 41.3605 176.146 43.4481 176.146 46.0233C176.146 48.5985 174.058 50.6861 171.483 50.6861Z" fill="white" stroke="#757575" stroke-width="3"/>
<path d="M171.483 61.7791L48.416 61.7791C45.8408 61.7791 43.7532 59.6915 43.7532 57.1163C43.7532 54.5411 45.8408 52.4535 48.416 52.4535L171.483 52.4535C174.058 52.4535 176.146 54.5411 176.146 57.1163C176.146 59.6915 174.058 61.7791 171.483 61.7791Z" fill="white" stroke="#757575" stroke-width="3"/>
<path d="M161.812 44.7907C165.216 44.7907 167.975 47.5499 167.975 50.9535V50.9535C167.975 54.3571 165.216 57.1163 161.812 57.1163L120.948 57.1163C117.544 57.1163 114.785 54.3571 114.785 50.9535V50.9535C114.785 47.5499 117.544 44.7907 120.948 44.7907L161.812 44.7907Z" fill="white"/>
<path d="M115.5 52.5L50.5 52.5C49.9477 52.5 49.5 52.0523 49.5 51.5C49.5 50.9477 49.9477 50.5 50.5 50.5L115.5 50.5C116.052 50.5 116.5 50.9477 116.5 51.5C116.5 52.0523 116.052 52.5 115.5 52.5Z" stroke="#757575" stroke-width="3"/>
<path d="M169.5 52.5L165.5 52.5C164.948 52.5 164.5 52.0523 164.5 51.5C164.5 50.9477 164.948 50.5 165.5 50.5L169.5 50.5C170.052 50.5 170.5 50.9477 170.5 51.5C170.5 52.0523 170.052 52.5 169.5 52.5Z" stroke="#757575" stroke-width="3"/>
<path d="M147.133 36.6487V128.119C147.133 130.962 144.828 133.267 141.984 133.267C139.141 133.267 136.835 130.962 136.835 128.119V36.6487C136.835 33.8052 139.141 31.5 141.984 31.5C144.828 31.5 147.133 33.8052 147.133 36.6487Z" fill="white" stroke="#595959" stroke-width="3"/>
<path d="M160.43 36.6487V91.142C160.43 93.9855 158.125 96.2907 155.282 96.2907C152.438 96.2907 150.133 93.9855 150.133 91.142V36.6487C150.133 33.8052 152.438 31.5 155.282 31.5C158.125 31.5 160.43 33.8052 160.43 36.6487Z" fill="white" stroke="#595959" stroke-width="3"/>
<path d="M153.177 46.5092V82.5141C153.177 85.3576 150.872 87.6628 148.028 87.6628C145.185 87.6628 142.88 85.3576 142.88 82.5141V46.5092C142.88 43.6656 145.185 41.3605 148.028 41.3605C150.872 41.3605 153.177 43.6656 153.177 46.5092Z" fill="white" stroke="white" stroke-width="3"/>
<path d="M150.26 41.0219V44.8618C150.26 45.7601 149.531 46.4884 148.633 46.4884C147.735 46.4884 147.006 45.7601 147.006 44.8618V41.0219C147.006 40.1236 147.735 39.3954 148.633 39.3954C149.531 39.3954 150.26 40.1236 150.26 41.0219Z" stroke="#595959" stroke-width="4"/>
<path d="M150 83.5V87.5C150 88.3284 149.328 89 148.5 89C147.672 89 147 88.3284 147 87.5V83.5C147 82.6716 147.672 82 148.5 82C149.328 82 150 82.6716 150 83.5Z" stroke="#595959" stroke-width="4"/>
<path d="M149.051 62.6035V67.6523C149.051 68.2168 148.593 68.6744 148.028 68.6744C147.464 68.6744 147.006 68.2168 147.006 67.6523V62.6035C147.006 62.039 147.464 61.5814 148.028 61.5814C148.593 61.5814 149.051 62.039 149.051 62.6035Z" stroke="#595959" stroke-width="4"/>
<rect x="36.5" y="125.174" width="188" height="14.2558" rx="6.5" fill="#F9F9F9" stroke="#525252" stroke-width="3"/>
<path d="M86.3766 201.326C56.7595 181.605 43.6635 155.105 43.462 140.314H217.538C215.725 176.674 187.316 191.465 178.854 197.628C172.81 205.023 178.854 208.105 174.623 214.267C173.415 215.5 170.997 215.5 170.997 215.5H97.8608C90.0032 214.267 96.0475 208.721 86.3766 201.326Z" fill="white" stroke="#525252" stroke-width="3"/>
<rect x="72.1725" y="159.697" width="10.536" height="3.02215" rx="1.51108" transform="rotate(90 72.1725 159.697)" fill="#F9F9F9" stroke="#525252" stroke-width="3.02215"/>
<rect x="56.4573" y="159.697" width="10.536" height="3.02215" rx="1.51108" transform="rotate(90 56.4573 159.697)" fill="#F9F9F9" stroke="#525252" stroke-width="3.02215"/>
<rect x="87.8877" y="159.697" width="10.536" height="3.02215" rx="1.51108" transform="rotate(90 87.8877 159.697)" fill="#F9F9F9" stroke="#525252" stroke-width="3.02215"/>
<rect x="103.603" y="159.697" width="10.536" height="3.02215" rx="1.51108" transform="rotate(90 103.603 159.697)" fill="#F9F9F9" stroke="#525252" stroke-width="3.02215"/>
<rect x="119.318" y="159.697" width="10.536" height="3.02215" rx="1.51108" transform="rotate(90 119.318 159.697)" fill="#F9F9F9" stroke="#525252" stroke-width="3.02215"/>
<rect x="170.061" y="205.948" width="22.3047" height="3.08139" rx="1.5407" transform="rotate(-180 170.061 205.948)" fill="#F9F9F9" stroke="#525252" stroke-width="3.08139"/>
<rect x="135.033" y="159.697" width="10.536" height="3.02215" rx="1.51108" transform="rotate(90 135.033 159.697)" fill="#F9F9F9" stroke="#525252" stroke-width="3.02215"/>
<rect x="150.748" y="159.697" width="10.536" height="3.02215" rx="1.51108" transform="rotate(90 150.748 159.697)" fill="#F9F9F9" stroke="#525252" stroke-width="3.02215"/>
<rect x="166.464" y="159.697" width="10.536" height="3.02215" rx="1.51108" transform="rotate(90 166.464 159.697)" fill="#F9F9F9" stroke="#525252" stroke-width="3.02215"/>
<rect x="182.179" y="159.697" width="10.536" height="3.02215" rx="1.51108" transform="rotate(90 182.179 159.697)" fill="#F9F9F9" stroke="#525252" stroke-width="3.02215"/>
<rect x="197.894" y="159.697" width="10.536" height="3.02215" rx="1.51108" transform="rotate(90 197.894 159.697)" fill="#F9F9F9" stroke="#525252" stroke-width="3.02215"/>
<mask id="path-26-inside-1_10_269" fill="white">
<path d="M138.772 204.163C138.772 205.82 137.429 207.163 135.772 207.163L94.1628 207.163C90.7592 207.163 88 204.404 88 201V201L135.772 201C137.429 201 138.772 202.343 138.772 204L138.772 204.163Z"/>
</mask>
<path d="M138.772 204.163C138.772 205.82 137.429 207.163 135.772 207.163L94.1628 207.163C90.7592 207.163 88 204.404 88 201V201L135.772 201C137.429 201 138.772 202.343 138.772 204L138.772 204.163Z" fill="#F9F9F9" stroke="#525252" stroke-width="6.16279" mask="url(#path-26-inside-1_10_269)"/>
<rect x="210.285" y="159.395" width="8.6753" height="2.41772" rx="1.20886" transform="rotate(90 210.285 159.395)" fill="#F9F9F9" stroke="#525252" stroke-width="2.41772"/>
</svg>
