<svg width="256" height="256" viewBox="0 0 256 256" fill="none" xmlns="http://www.w3.org/2000/svg">
<rect width="256" height="256" rx="59" fill="#1E1E1E"/>
<rect x="18" y="194" width="32" height="21" fill="#1E1E1E"/>
<path d="M57 161C61 147 76.1667 137.167 83 132.5C83.5 125 83.7 108.4 80.5 102C78 94.5 73 95.5 71.5 97C69 99.5 69.5 104 64.5 109C59 113 53.5 108.5 52.5 104C51.0556 97.5 53 84 53 80.5C53 77.5 50.3333 76.5 49 75.5L14 56C25.1667 59.6667 47.6 67 52 69C55.5 70 57.2344 67.141 57 65.5C56 58.5 54.6 55.2 57 58C59.4 60.8 66 61.5 78 61.5C90 62 95.5 64.6024 101 68C108 72.5 114.5 85.8333 120 94.5C126.5 104 138.5 101.5 147 101C157.5 100.382 177.5 95 188 97C219 104.5 228.5 133.5 232.5 146C234 151.5 241.5 169.5 242 170C242.5 170.5 239.2 171.6 232 170C223 168 219 156.5 217.5 150C216.3 144.8 213.667 139.667 211.5 137C209.333 134.333 208.5 136 207.5 137.5C206.5 139 205 143 205.5 147.5C206 152 212.5 162 214.5 166.5C222.544 184.6 222.667 192.833 222 204L221.5 208H212C209.2 208 208.5 205.333 208.5 204L208 188C207.833 185 207 181.5 204 179C200.5 176.5 187 157.5 184 156.5C181.6 155.7 181 157.833 181 159C181 162 181 167.5 180 175C174.5 181 169.333 199.167 168 207H156C154 204 160.5 181 160.5 167C160 155 162 153.5 154.5 153.5C138 153.5 122.5 152.5 115 152.5C114 155.5 117.5 163.5 122.5 177.5C127.5 191.5 127.5 193 126 198C124.8 202 121.667 207 120.5 209H111C108.6 209 108.667 206.667 109 205.5C110.833 200 112.9 187.5 106.5 181.5C100.1 175.5 96.5 165 97 160C96.8333 155.833 95 148.5 74 163.5C64.5 170 76.3333 182.833 82.5 187.5C80 190.5 80.5 190.5 74 197C64.8 192.2 59.5 184.333 58 181C56 173.5 56.5 164 57 161Z" fill="white" stroke="white"/>
</svg>
