<svg width="256" height="256" viewBox="0 0 256 256" fill="none" xmlns="http://www.w3.org/2000/svg">
<rect width="256" height="256" rx="59" fill="#242938"/>
<path d="M64.5683 93.8981V126.712L72.5117 130.791C76.8806 133.033 80.5253 134.871 80.572 134.871C80.6421 134.871 80.7122 127.362 80.7355 118.172L80.8056 101.452L91.7629 121.691C97.7905 132.831 103 142.335 103.304 142.828C104.659 144.935 105.804 146.123 107.65 147.288C110.734 149.216 122.719 156.164 122.976 156.164C123.139 156.164 123.209 145.248 123.209 122.924V89.7067L114.215 85.3808L105.22 81.0774L105.173 99.2775L105.103 117.478L102.206 111.538C88.4453 83.4308 81.7401 69.9152 81.3196 69.4894C80.9458 69.0635 66.4607 61.779 64.9889 61.2411C64.5917 61.0842 64.5683 62.7428 64.5683 93.8981Z" fill="#4D77CF"/>
<path d="M37 187.656V207.044H41.2053H45.4107L45.4574 195.052L45.5275 183.083L54.9895 194.559C60.1995 200.857 64.802 206.259 65.2459 206.528C65.9701 206.999 66.2972 207.044 69.2643 207.044H72.5118V187.656V168.268H68.3064H64.1011L64.0544 180.237L63.9843 192.228L54.312 180.483C48.9852 174.028 44.3827 168.649 44.079 168.514C43.7519 168.38 42.0931 168.268 40.2708 168.268H37V187.656Z" fill="#4D77CF"/>
<path d="M155.45 187.633V207.044H160.24H165.029V200.566V194.088L169.772 193.976C175.122 193.864 176.15 193.685 179.234 192.228C182.762 190.569 184.888 187.925 185.682 184.137C187.014 177.883 184.514 172.392 179.211 169.971C175.87 168.424 175.753 168.424 165.099 168.335L155.45 168.245V187.633ZM170.8 175.216C174.188 175.642 176.033 177.278 176.384 180.192C176.711 182.859 175.566 185.28 173.44 186.423C172.459 186.938 172.108 186.983 168.721 187.05L165.029 187.14V181.066V174.992H167.085C168.207 174.992 169.889 175.104 170.8 175.216Z" fill="#4D77CF"/>
<path d="M122.322 179.026C120.803 179.34 118.957 180.214 117.883 181.133C116.855 182.03 116.878 182.03 116.434 180.752C116.014 179.497 115.243 179.25 111.645 179.25H108.724V193.147V207.044H113.163H117.602V197.092V187.118L118.373 186.557C120.686 184.854 123.35 184.921 124.705 186.714C125.172 187.342 125.195 187.656 125.265 197.204L125.336 207.044H129.751H134.19V197.675C134.19 188.418 134.19 188.306 134.727 187.319C136.059 184.764 139.961 184.652 141.246 187.118C141.62 187.812 141.666 188.776 141.666 197.45V207.044H146.129H150.568L150.497 196.554C150.427 186.109 150.427 186.087 149.867 184.742C148.699 181.94 146.97 180.281 144.353 179.497C139.774 178.107 134.821 179.161 132.087 182.119C131.083 183.218 130.943 183.285 130.802 182.859C130.475 181.85 128.84 180.192 127.602 179.609C126.2 178.959 123.91 178.712 122.322 179.026Z" fill="#4D77CF"/>
<path d="M77.1844 188.597C77.1844 193.931 77.3012 198.594 77.418 199.423C77.7451 201.35 78.9834 203.794 80.245 205.004C80.8057 205.542 81.9505 206.304 82.7915 206.685C84.24 207.335 84.4503 207.38 87.1137 207.38C90.3845 207.357 91.6928 206.976 93.9824 205.363L95.3842 204.376L95.6645 205.273C96.1785 206.864 96.6224 207.044 100.337 207.044H103.585V193.147V179.25H99.1456H94.7066V189.09V198.952L93.9357 199.513C92.6507 200.454 91.1788 200.992 89.8004 200.992C88.1416 200.992 87.1137 200.409 86.5296 199.131C86.1091 198.257 86.0623 197.585 86.0623 188.709V179.25H81.6234H77.1844V188.597Z" fill="#4D77CF"/>
<path d="M187.504 179.743C187.575 180.035 190.121 185.683 193.158 192.295C196.195 198.93 198.672 204.444 198.672 204.533C198.672 204.645 197.457 207.156 195.985 210.137C194.513 213.118 193.298 215.606 193.298 215.673C193.298 215.74 195.074 215.785 197.247 215.785C201.032 215.785 201.242 215.763 201.803 215.292C202.246 214.911 204.629 209.756 210.143 197.294C214.395 187.678 217.923 179.676 217.993 179.519C218.087 179.318 217.246 179.25 214.302 179.25C211.124 179.25 210.33 179.318 209.653 179.654C208.741 180.08 209.115 179.25 205.097 190.3C203.859 193.73 203.181 195.276 203.088 195.007C199.887 186.714 197.27 180.371 196.896 179.923C196.382 179.362 196.359 179.362 191.897 179.295L187.388 179.228L187.504 179.743Z" fill="#4D77CF"/>
<path d="M132.386 128.102L158.209 116.145V143.601L132.386 155.558V128.102Z" fill="#4DABCF"/>
<path d="M167.748 74.0749L189.85 63.4467V90.903L167.748 101.531V74.0749Z" fill="#4DABCF"/>
<path d="M167.748 111.717L190.082 101.088V128.545L167.748 139.173V111.717Z" fill="#4DABCF"/>
<path d="M132.386 90.4602L158.209 78.5034V105.96L132.386 117.916V90.4602Z" fill="#4DABCF"/>
<path d="M104.235 71.7522L128.198 60.1254L151.463 70.975L127.5 82.6019L104.235 71.7522Z" fill="#4DABCF"/>
<path d="M71.4319 56.0312L95.3946 44.4044L118.659 55.254L94.6967 66.8809L71.4319 56.0312Z" fill="#4DABCF"/>
<path d="M106.096 39.3072L127.035 29L149.369 39.6327L128.431 49.9399L106.096 39.3072Z" fill="#4DABCF"/>
<path d="M137.737 54.7116L159.373 44.4044L183.103 55.7965L161.467 66.1037L137.737 54.7116Z" fill="#4DABCF"/>
</svg>
