<svg width="256" height="256" viewBox="0 0 256 256" fill="none" xmlns="http://www.w3.org/2000/svg">
<rect width="256" height="256" rx="59" fill="#D9D9D9"/>
<rect x="18" y="194" width="32" height="21" fill="#D9D9D9"/>
<path d="M57 157C61 143 76.1667 133.167 83 128.5C83.5 121 83.7 104.4 80.5 98C78 90.5 73 91.5 71.5 93C69 95.5 69.5 100 64.5 105C59 109 53.5 104.5 52.5 100C51.0556 93.5 53 80 53 76.5C53 73.5 50.3333 72.5 49 71.5L14 52C25.1667 55.6667 47.6 63 52 65C55.5 66 57.2344 63.141 57 61.5C56 54.5 54.6 51.2 57 54C59.4 56.8 66 57.5 78 57.5C90 58 95.5 60.6024 101 64C108 68.5 114.5 81.8333 120 90.5C126.5 100 138.5 97.5 147 97C157.5 96.3824 177.5 91 188 93C219 100.5 228.5 129.5 232.5 142C234 147.5 241.5 165.5 242 166C242.5 166.5 239.2 167.6 232 166C223 164 219 152.5 217.5 146C216.3 140.8 213.667 135.667 211.5 133C209.333 130.333 208.5 132 207.5 133.5C206.5 135 205 139 205.5 143.5C206 148 212.5 158 214.5 162.5C222.544 180.6 222.667 188.833 222 200L221.5 204H212C209.2 204 208.5 201.333 208.5 200L208 184C207.833 181 207 177.5 204 175C200.5 172.5 187 153.5 184 152.5C181.6 151.7 181 153.833 181 155C181 158 181 163.5 180 171C174.5 177 169.333 195.167 168 203H156C154 200 160.5 177 160.5 163C160 151 162 149.5 154.5 149.5C138 149.5 122.5 148.5 115 148.5C114 151.5 117.5 159.5 122.5 173.5C127.5 187.5 127.5 189 126 194C124.8 198 121.667 203 120.5 205H111C108.6 205 108.667 202.667 109 201.5C110.833 196 112.9 183.5 106.5 177.5C100.1 171.5 96.5 161 97 156C96.8333 151.833 95 144.5 74 159.5C64.5 166 76.3333 178.833 82.5 183.5C80 186.5 80.5 186.5 74 193C64.8 188.2 59.5 180.333 58 177C56 169.5 56.5 160 57 157Z" fill="#499848" stroke="#499848"/>
</svg>
