<svg width="256" height="256" viewBox="0 0 256 256" fill="none" xmlns="http://www.w3.org/2000/svg">
<rect width="256" height="256" rx="59" fill="#D9D9D9"/>
<path d="M60.5683 93.8981V126.712L68.5117 130.791C72.8806 133.033 76.5253 134.871 76.572 134.871C76.6421 134.871 76.7122 127.362 76.7355 118.172L76.8056 101.452L87.7629 121.691C93.7905 132.831 99.0005 142.335 99.3042 142.828C100.659 144.935 101.804 146.123 103.65 147.288C106.734 149.216 118.719 156.164 118.976 156.164C119.139 156.164 119.209 145.248 119.209 122.924V89.7067L110.215 85.3808L101.22 81.0774L101.173 99.2775L101.103 117.478L98.2061 111.538C84.4453 83.4308 77.7401 69.9152 77.3196 69.4894C76.9458 69.0635 62.4607 61.779 60.9889 61.2411C60.5917 61.0842 60.5683 62.7428 60.5683 93.8981Z" fill="#4D77CF"/>
<path d="M33 187.656V207.044H37.2053H41.4107L41.4574 195.052L41.5275 183.083L50.9895 194.559C56.1995 200.857 60.802 206.259 61.2459 206.528C61.9701 206.999 62.2972 207.044 65.2643 207.044H68.5118V187.656V168.268H64.3064H60.1011L60.0544 180.237L59.9843 192.228L50.312 180.483C44.9852 174.028 40.3827 168.649 40.079 168.514C39.7519 168.38 38.0931 168.268 36.2708 168.268H33V187.656Z" fill="#4D77CF"/>
<path d="M151.45 187.633V207.044H156.24H161.029V200.566V194.088L165.772 193.976C171.122 193.864 172.15 193.685 175.234 192.228C178.762 190.569 180.888 187.925 181.682 184.137C183.014 177.883 180.514 172.392 175.211 169.971C171.87 168.424 171.753 168.424 161.099 168.335L151.45 168.245V187.633ZM166.8 175.216C170.188 175.642 172.033 177.278 172.384 180.192C172.711 182.859 171.566 185.28 169.44 186.423C168.459 186.938 168.108 186.983 164.721 187.05L161.029 187.14V181.066V174.992H163.085C164.207 174.992 165.889 175.104 166.8 175.216Z" fill="#4D77CF"/>
<path d="M118.322 179.026C116.803 179.34 114.957 180.214 113.883 181.133C112.855 182.03 112.878 182.03 112.434 180.752C112.014 179.497 111.243 179.25 107.645 179.25H104.724V193.147V207.044H109.163H113.602V197.092V187.118L114.373 186.557C116.686 184.854 119.35 184.921 120.705 186.714C121.172 187.342 121.195 187.656 121.265 197.204L121.336 207.044H125.751H130.19V197.675C130.19 188.418 130.19 188.306 130.727 187.319C132.059 184.764 135.961 184.652 137.246 187.118C137.62 187.812 137.666 188.776 137.666 197.45V207.044H142.129H146.568L146.497 196.554C146.427 186.109 146.427 186.087 145.867 184.742C144.699 181.94 142.97 180.281 140.353 179.497C135.774 178.107 130.821 179.161 128.087 182.119C127.083 183.218 126.943 183.285 126.802 182.859C126.475 181.85 124.84 180.192 123.602 179.609C122.2 178.959 119.91 178.712 118.322 179.026Z" fill="#4D77CF"/>
<path d="M73.1844 188.597C73.1844 193.931 73.3012 198.594 73.418 199.423C73.7451 201.35 74.9834 203.794 76.245 205.004C76.8057 205.542 77.9505 206.304 78.7915 206.685C80.24 207.335 80.4503 207.38 83.1137 207.38C86.3845 207.357 87.6928 206.976 89.9824 205.363L91.3842 204.376L91.6645 205.273C92.1785 206.864 92.6224 207.044 96.3371 207.044H99.5846V193.147V179.25H95.1456H90.7066V189.09V198.952L89.9357 199.513C88.6507 200.454 87.1788 200.992 85.8004 200.992C84.1416 200.992 83.1137 200.409 82.5296 199.131C82.1091 198.257 82.0623 197.585 82.0623 188.709V179.25H77.6234H73.1844V188.597Z" fill="#4D77CF"/>
<path d="M183.504 179.743C183.575 180.035 186.121 185.683 189.158 192.295C192.195 198.93 194.672 204.444 194.672 204.533C194.672 204.645 193.457 207.156 191.985 210.137C190.513 213.118 189.298 215.606 189.298 215.673C189.298 215.74 191.074 215.785 193.247 215.785C197.032 215.785 197.242 215.763 197.803 215.292C198.246 214.911 200.629 209.756 206.143 197.294C210.395 187.678 213.923 179.676 213.993 179.519C214.087 179.318 213.246 179.25 210.302 179.25C207.124 179.25 206.33 179.318 205.653 179.654C204.741 180.08 205.115 179.25 201.097 190.3C199.859 193.73 199.181 195.276 199.088 195.007C195.887 186.714 193.27 180.371 192.896 179.923C192.382 179.362 192.359 179.362 187.897 179.295L183.388 179.228L183.504 179.743Z" fill="#4D77CF"/>
<path d="M128.386 128.102L154.21 116.145V143.601L128.386 155.558V128.102Z" fill="#4DABCF"/>
<path d="M163.748 74.0749L185.85 63.4467V90.903L163.748 101.531V74.0749Z" fill="#4DABCF"/>
<path d="M163.748 111.717L186.082 101.088V128.545L163.748 139.173V111.717Z" fill="#4DABCF"/>
<path d="M128.386 90.4602L154.21 78.5034V105.96L128.386 117.916V90.4602Z" fill="#4DABCF"/>
<path d="M100.235 71.7522L124.198 60.1254L147.463 70.975L123.5 82.6019L100.235 71.7522Z" fill="#4DABCF"/>
<path d="M67.4319 56.0312L91.3946 44.4044L114.659 55.254L90.6967 66.8809L67.4319 56.0312Z" fill="#4DABCF"/>
<path d="M102.096 39.3072L123.035 29L145.369 39.6327L124.431 49.9399L102.096 39.3072Z" fill="#4DABCF"/>
<path d="M133.737 54.7116L155.373 44.4044L179.103 55.7965L157.467 66.1037L133.737 54.7116Z" fill="#4DABCF"/>
</svg>
