<svg width="256" height="256" viewBox="0 0 256 256" fill="none" xmlns="http://www.w3.org/2000/svg">
<rect width="256" height="256" rx="59" fill="#D9D9D9"/>
<path d="M169.483 50.6861L46.416 50.6861C43.8408 50.6861 41.7532 48.5985 41.7532 46.0233C41.7532 43.4481 43.8408 41.3605 46.416 41.3605L169.483 41.3605C172.058 41.3605 174.146 43.4481 174.146 46.0233C174.146 48.5985 172.058 50.6861 169.483 50.6861Z" fill="#B27C4B" stroke="#664629" stroke-width="3"/>
<path d="M169.483 61.7791L46.416 61.7791C43.8408 61.7791 41.7532 59.6915 41.7532 57.1163C41.7532 54.5411 43.8408 52.4535 46.416 52.4535L169.483 52.4535C172.058 52.4535 174.146 54.5411 174.146 57.1163C174.146 59.6915 172.058 61.7791 169.483 61.7791Z" fill="#B27C4B" stroke="#664629" stroke-width="3"/>
<path d="M159.812 44.7907C163.216 44.7907 165.975 47.5499 165.975 50.9535V50.9535C165.975 54.3571 163.216 57.1163 159.812 57.1163L118.948 57.1163C115.544 57.1163 112.785 54.3571 112.785 50.9535V50.9535C112.785 47.5499 115.544 44.7907 118.948 44.7907L159.812 44.7907Z" fill="#B27C4B"/>
<path d="M113.5 52.5L48.5 52.5C47.9477 52.5 47.5 52.0523 47.5 51.5C47.5 50.9477 47.9477 50.5 48.5 50.5L113.5 50.5C114.052 50.5 114.5 50.9477 114.5 51.5C114.5 52.0523 114.052 52.5 113.5 52.5Z" stroke="#664629" stroke-width="3"/>
<path d="M167.5 52.5L163.5 52.5C162.948 52.5 162.5 52.0523 162.5 51.5C162.5 50.9477 162.948 50.5 163.5 50.5L167.5 50.5C168.052 50.5 168.5 50.9477 168.5 51.5C168.5 52.0523 168.052 52.5 167.5 52.5Z" stroke="#664629" stroke-width="3"/>
<path d="M145.133 36.6487V128.119C145.133 130.962 142.828 133.267 139.984 133.267C137.141 133.267 134.835 130.962 134.835 128.119V36.6487C134.835 33.8052 137.141 31.5 139.984 31.5C142.828 31.5 145.133 33.8052 145.133 36.6487Z" fill="#FFD762" stroke="#C59300" stroke-width="3"/>
<path d="M158.43 36.6487V91.142C158.43 93.9855 156.125 96.2907 153.282 96.2907C150.438 96.2907 148.133 93.9855 148.133 91.142V36.6487C148.133 33.8052 150.438 31.5 153.282 31.5C156.125 31.5 158.43 33.8052 158.43 36.6487Z" fill="#FFD762" stroke="#C59300" stroke-width="3"/>
<path d="M151.177 46.5092V82.5141C151.177 85.3576 148.872 87.6628 146.028 87.6628C143.185 87.6628 140.88 85.3576 140.88 82.5141V46.5092C140.88 43.6656 143.185 41.3605 146.028 41.3605C148.872 41.3605 151.177 43.6656 151.177 46.5092Z" fill="#FFD762" stroke="#FFD762" stroke-width="3"/>
<path d="M148.259 41.0219V44.8618C148.259 45.7601 147.531 46.4884 146.633 46.4884C145.735 46.4884 145.006 45.7601 145.006 44.8618V41.0219C145.006 40.1236 145.735 39.3954 146.633 39.3954C147.531 39.3954 148.259 40.1236 148.259 41.0219Z" stroke="#C59300" stroke-width="4"/>
<path d="M148 83.5V87.5C148 88.3284 147.328 89 146.5 89C145.672 89 145 88.3284 145 87.5V83.5C145 82.6716 145.672 82 146.5 82C147.328 82 148 82.6716 148 83.5Z" stroke="#C59300" stroke-width="4"/>
<path d="M147.051 62.6035V67.6523C147.051 68.2168 146.593 68.6744 146.028 68.6744C145.464 68.6744 145.006 68.2168 145.006 67.6523V62.6035C145.006 62.039 145.464 61.5814 146.028 61.5814C146.593 61.5814 147.051 62.039 147.051 62.6035Z" stroke="#C59300" stroke-width="4"/>
<rect x="34.5" y="125.174" width="188" height="14.2558" rx="6.5" fill="#0E90CF" stroke="#1A447A" stroke-width="3"/>
<path d="M84.3766 201.326C54.7595 181.605 41.6635 155.105 41.462 140.314H215.538C213.725 176.674 185.316 191.465 176.854 197.628C170.81 205.023 176.854 208.105 172.623 214.267C171.415 215.5 168.997 215.5 168.997 215.5H95.8608C88.0032 214.267 94.0475 208.721 84.3766 201.326Z" fill="#4AC4FF" stroke="#1A447A" stroke-width="3"/>
<rect x="70.1725" y="159.697" width="10.536" height="3.02215" rx="1.51108" transform="rotate(90 70.1725 159.697)" fill="#0E90CF" stroke="#1A447A" stroke-width="3.02215"/>
<rect x="54.4573" y="159.697" width="10.536" height="3.02215" rx="1.51108" transform="rotate(90 54.4573 159.697)" fill="#0E90CF" stroke="#1A447A" stroke-width="3.02215"/>
<rect x="85.8877" y="159.697" width="10.536" height="3.02215" rx="1.51108" transform="rotate(90 85.8877 159.697)" fill="#0E90CF" stroke="#1A447A" stroke-width="3.02215"/>
<rect x="101.603" y="159.697" width="10.536" height="3.02215" rx="1.51108" transform="rotate(90 101.603 159.697)" fill="#0E90CF" stroke="#1A447A" stroke-width="3.02215"/>
<rect x="117.318" y="159.697" width="10.536" height="3.02215" rx="1.51108" transform="rotate(90 117.318 159.697)" fill="#0E90CF" stroke="#1A447A" stroke-width="3.02215"/>
<rect x="168.061" y="205.948" width="22.3047" height="3.08139" rx="1.5407" transform="rotate(-180 168.061 205.948)" fill="#0E90CF" stroke="#1A447A" stroke-width="3.08139"/>
<rect x="133.033" y="159.697" width="10.536" height="3.02215" rx="1.51108" transform="rotate(90 133.033 159.697)" fill="#0E90CF" stroke="#1A447A" stroke-width="3.02215"/>
<rect x="148.748" y="159.697" width="10.536" height="3.02215" rx="1.51108" transform="rotate(90 148.748 159.697)" fill="#0E90CF" stroke="#1A447A" stroke-width="3.02215"/>
<rect x="164.464" y="159.697" width="10.536" height="3.02215" rx="1.51108" transform="rotate(90 164.464 159.697)" fill="#0E90CF" stroke="#1A447A" stroke-width="3.02215"/>
<rect x="180.179" y="159.697" width="10.536" height="3.02215" rx="1.51108" transform="rotate(90 180.179 159.697)" fill="#0E90CF" stroke="#1A447A" stroke-width="3.02215"/>
<rect x="195.894" y="159.697" width="10.536" height="3.02215" rx="1.51108" transform="rotate(90 195.894 159.697)" fill="#0E90CF" stroke="#1A447A" stroke-width="3.02215"/>
<mask id="path-26-inside-1_9_49" fill="white">
<path d="M136.772 204.163C136.772 205.82 135.429 207.163 133.772 207.163L92.1628 207.163C88.7592 207.163 86 204.404 86 201V201L133.772 201C135.429 201 136.772 202.343 136.772 204L136.772 204.163Z"/>
</mask>
<path d="M136.772 204.163C136.772 205.82 135.429 207.163 133.772 207.163L92.1628 207.163C88.7592 207.163 86 204.404 86 201V201L133.772 201C135.429 201 136.772 202.343 136.772 204L136.772 204.163Z" fill="#0E90CF" stroke="#1A447A" stroke-width="6.16279" mask="url(#path-26-inside-1_9_49)"/>
<rect x="208.285" y="159.395" width="8.6753" height="2.41772" rx="1.20886" transform="rotate(90 208.285 159.395)" fill="#0E90CF" stroke="#1A447A" stroke-width="2.41772"/>
</svg>
